<svg width="29" height="21" viewBox="0 0 29 21" fill="none" xmlns="http://www.w3.org/2000/svg">
<path d="M16.3629 13.651C15.6654 14.1158 14.8551 14.3615 14.0196 14.3615C13.1843 14.3615 12.374 14.1158 11.6764 13.651L0.186691 5.99562C0.123263 5.95324 0.0610097 5.90913 0 5.86334L0 18.4075C0 19.8457 1.16785 20.9871 2.5812 20.9871H25.458C26.8971 20.9871 28.0392 19.82 28.0392 18.4075V5.86328C27.9781 5.90919 27.9157 5.9534 27.8521 5.99584L16.3629 13.651Z" fill="#2B2B2B"/>
<path d="M1.09802 4.6298L12.5877 12.2852C13.0227 12.575 13.5211 12.7199 14.0196 12.7199C14.5181 12.7199 15.0166 12.575 15.4516 12.2852L26.9413 4.6298C27.6288 4.17198 28.0393 3.40574 28.0393 2.57876C28.0393 1.15679 26.8817 0 25.4589 0H2.58033C1.15755 5.4731e-05 1.35821e-06 1.15685 1.35821e-06 2.58013C-0.000425178 2.9858 0.0996177 3.38527 0.291207 3.74291C0.482797 4.10054 0.759976 4.40524 1.09802 4.6298Z" fill="#2B2B2B"/>
</svg>
