<svg width="347" height="74" viewBox="0 0 347 74" fill="none" xmlns="http://www.w3.org/2000/svg">
<path d="M144.863 69.2675V39.8331C144.863 35.6973 144.185 32.8917 142.806 31.4406C141.426 29.9894 139.055 29.2638 135.715 29.2638C128.406 29.2638 124.728 33.3754 124.728 41.5745V65.3252V70.6703C124.728 71.6136 124.099 72.2424 123.155 72.2424H118.387H116.935H112.143C111.224 72.2424 110.57 71.6136 110.57 70.6703V68.8805V25.6359V21.4759V20.315C110.57 19.3475 111.224 18.7187 112.143 18.7187H116.282H118.387H122.501C123.445 18.7187 124.074 19.3475 124.074 20.315V25.6359V26.555C125.744 23.5075 127.971 21.2099 130.73 19.6378C133.488 18.0899 137.022 17.3159 141.378 17.3159C143.919 17.3159 146.291 17.6787 148.469 18.4527C150.647 19.2024 152.51 20.3634 154.083 21.8629C155.632 23.3866 156.866 25.2731 157.762 27.4741C158.681 29.6992 159.141 32.2387 159.141 35.141V65.3252V70.6703C159.141 71.6136 158.488 72.2424 157.568 72.2424H152.68H151.324H146.436C145.516 72.2424 144.863 71.6136 144.863 70.6703V69.2675Z" fill="#2B2B2B"/>
<path d="M90.9936 69.5346V64.7458C87.3635 70.6955 81.7973 73.6704 74.3193 73.6704C71.633 73.6704 69.1887 73.1867 66.9865 72.2434C64.76 71.3002 62.8481 69.9699 61.2509 68.2285C59.6536 66.4871 58.4194 64.4071 57.4998 62.0127C56.6043 59.6425 56.1445 56.9578 56.1445 53.983V25.6369V22.1783V21.7914V20.316C56.1445 19.3486 56.7738 18.7197 57.7176 18.7197H62.4851H63.9372H68.7289C69.6727 18.7197 70.302 19.3486 70.302 20.316V25.6369V51.8062C70.302 58.4816 73.3028 61.7951 79.3288 61.7951C82.9589 61.7951 85.6936 60.6583 87.5571 58.3848C89.3963 56.0872 90.3401 53.1848 90.3401 49.6295V22.0332V20.316C90.3401 19.3486 90.9694 18.7197 91.889 18.7197H96.5839H98.1328H102.804C103.747 18.7197 104.377 19.3486 104.377 20.316V25.6369V65.3262V70.6713C104.377 71.6146 103.747 72.2434 102.804 72.2434H98.7862H96.5839H92.5424C91.6228 72.2434 90.9936 71.6146 90.9936 70.6713V69.5346Z" fill="#2B2B2B"/>
<path d="M15.1254 42.0111V46.1953V65.3265V70.6716C15.1254 71.6148 14.4962 72.2437 13.5524 72.2437H7.79263H7.33282H1.57305C0.629219 72.2437 0 71.6148 0 70.6716V69.2688V3.26511V1.59628C0 0.653023 0.629219 0 1.57305 0H4.86434H7.79263H43.6823H47.3366H49.9261C50.8457 0 51.4991 0.653023 51.4991 1.59628V5.7079V6.91721V11.0288C51.4991 11.9963 50.8457 12.6251 49.9261 12.6251H47.3366H43.6823H15.1254V23.6781V29.0474V29.2651H39.1084H41.4558H45.3521C46.2718 29.2651 46.9252 29.9181 46.9252 30.8614V35.0939V36.2065V40.4149C46.9252 41.3581 46.2718 42.0111 45.3521 42.0111H42.1577H39.1084H15.1254Z" fill="#2B2B2B"/>
<path d="M313.544 51.879L313.52 66.4148V70.6716C313.52 71.6148 312.891 72.2437 311.947 72.2437H307.058H305.727H300.839C299.895 72.2437 299.266 71.6148 299.266 70.6716V66.8018V65.3265V20.2679V6.91721V1.59628C299.266 0.628837 299.895 0 300.839 0H305.727H307.058H311.947C312.891 0 313.52 0.628837 313.52 1.59628V6.91721V20.0986C313.52 20.147 313.52 20.2195 313.52 20.2679V30.547L313.544 39.0604L328.573 21.7191L330.218 19.8084C330.243 19.7842 330.243 19.7842 330.267 19.76L330.291 19.7358C330.848 19.107 331.719 18.6958 332.566 18.6958H333.219C333.316 18.6958 333.413 18.6958 333.534 18.6958H345.32C345.392 18.6958 345.416 18.6958 345.416 18.72H345.852C347.11 18.72 347.377 19.8809 346.433 20.9451L346.36 21.0418L345.731 21.7191L324.483 46.1711L345.731 69.2204L346.36 69.8976L346.433 69.9944C347.377 71.0586 347.11 72.2195 345.852 72.2195H345.586C345.513 72.2437 345.441 72.2437 345.32 72.2437H333.534C333.413 72.2437 333.316 72.2437 333.219 72.2437H332.566C331.719 72.2437 330.848 71.8325 330.291 71.2037L330.267 71.1795C330.243 71.1553 330.243 71.1553 330.218 71.1311L328.573 69.2204L313.544 51.879Z" fill="#2B2B2B"/>
<path d="M278.792 65.3259V39.8339C278.792 35.6981 278.115 32.8925 276.735 31.4413C275.356 29.9901 272.984 29.2646 269.645 29.2646C262.312 29.2646 258.657 33.3762 258.657 41.5753V69.2925V70.6711C258.657 71.6143 258.028 72.2432 257.084 72.2432H252.317H250.865H246.073C245.129 72.2432 244.5 71.6143 244.5 70.6711V67.6236V65.3259V25.6367V21.6218V20.3157C244.5 19.3483 245.129 18.7195 246.073 18.7195H250.211H252.317H256.431C257.375 18.7195 258.004 19.3483 258.004 20.3157V21.6218V25.6367V26.5557C259.674 23.5083 261.876 21.2106 264.635 19.6385C267.394 18.0906 270.951 17.2925 275.308 17.2925C277.849 17.2925 280.22 17.6795 282.398 18.4534C284.576 19.2032 286.44 20.3399 287.989 21.8636C289.562 23.3874 290.796 25.2739 291.691 27.4748C292.611 29.6999 293.071 32.2395 293.071 35.1418V68.712V70.6711C293.071 71.6143 292.417 72.2432 291.498 72.2432H286.609H285.254H280.365C279.446 72.2432 278.792 71.6143 278.792 70.6711V65.3259Z" fill="#2B2B2B"/>
<path d="M224.148 68.0134V65.3288V26.5586L238.306 12.313V65.3288V68.6665V70.6739C238.306 71.6172 237.652 72.246 236.733 72.246H231.941H230.489H225.721C224.778 72.246 224.148 71.6172 224.148 70.6739V68.0134Z" fill="#2B2B2B"/>
<path d="M203.553 68.2772V65.6893C200.286 70.986 195.204 73.6707 188.524 73.6707C185.112 73.6707 181.99 73.0176 179.158 71.7116C176.327 70.4056 173.907 68.519 171.874 66.0521C169.841 63.5851 168.244 60.5618 167.082 57.0307C165.921 53.4753 165.34 49.4363 165.34 44.9377C165.34 40.8744 165.824 37.1739 166.816 33.7879C167.784 30.426 169.236 27.4995 171.124 25.0325C172.987 22.5656 175.311 20.6549 178.021 19.3246C180.756 17.9702 183.853 17.3172 187.338 17.3172C193.945 17.3172 199.245 20.0986 203.238 25.6856V6.91721V1.59628C203.238 0.653023 203.867 0 204.787 0H209.361H211.031H215.605C216.524 0 217.154 0.653023 217.154 1.59628V4.25674V68.64V70.6716C217.154 71.6149 216.524 72.2437 215.605 72.2437H211.345H209.361H205.126C204.182 72.2437 203.553 71.6149 203.553 70.6716V68.2772ZM191.791 62.1339C195.204 62.1339 198.059 60.707 200.334 57.9014C202.633 55.0716 203.553 51.3711 203.553 46.8C203.553 35.1907 199.826 29.386 191.912 29.386C183.781 29.386 179.715 34.9005 179.715 45.9293C179.715 50.7181 180.828 54.6121 183.079 57.6111C185.33 60.6344 188.234 62.1339 191.791 62.1339Z" fill="#2B2B2B"/>
<path fill-rule="evenodd" clip-rule="evenodd" d="M224.146 20.5595L238.303 6.31396H218.652L224.146 12.2879V20.5595Z" fill="url(#paint0_linear_2777_356)"/>
<defs>
<linearGradient id="paint0_linear_2777_356" x1="224.097" y1="16.0034" x2="231.996" y2="11.2717" gradientUnits="userSpaceOnUse">
<stop stop-color="#0160D6"/>
<stop offset="1" stop-color="#07CCB5"/>
</linearGradient>
</defs>
</svg>
