<svg width="48" height="3" viewBox="0 0 48 3" fill="none" xmlns="http://www.w3.org/2000/svg">
<path d="M0 1.5C0 0.671573 0.671573 0 1.5 0C2.32843 0 3 0.671573 3 1.5C3 2.32843 2.32843 3 1.5 3C0.671573 3 0 2.32843 0 1.5Z" fill="url(#paint0_linear_2932_69)"/>
<path d="M5 1.5C5 0.671573 5.67157 0 6.5 0H46.5C47.3284 0 48 0.671573 48 1.5C48 2.32843 47.3284 3 46.5 3H6.5C5.67157 3 5 2.32843 5 1.5Z" fill="url(#paint1_linear_2932_69)"/>
<defs>
<linearGradient id="paint0_linear_2932_69" x1="0.83117" y1="2.04051" x2="2.20983" y2="1.44185" gradientUnits="userSpaceOnUse">
<stop stop-color="#0160D6"/>
<stop offset="1" stop-color="#07CCB5"/>
</linearGradient>
<linearGradient id="paint1_linear_2932_69" x1="16.9134" y1="2.04051" x2="17.5045" y2="-1.63811" gradientUnits="userSpaceOnUse">
<stop stop-color="#0160D6"/>
<stop offset="1" stop-color="#07CCB5"/>
</linearGradient>
</defs>
</svg>
