<svg width="17" height="14" viewBox="0 0 17 14" fill="none" xmlns="http://www.w3.org/2000/svg">
<path d="M16.7531 3.79992C16.6292 3.72095 16.4768 3.6912 16.3294 3.71724C16.182 3.74327 16.0518 3.82294 15.9673 3.93873L14.8138 5.51911C14.5142 4.21452 13.8201 3.01575 12.7873 2.05071C11.3721 0.72829 9.49059 0 7.48917 0C5.48783 0 3.60622 0.72829 2.19106 2.05071C-0.730353 4.78067 -0.730353 9.22264 2.19106 11.9525C3.65176 13.3175 5.57047 14 7.48917 14C9.40787 14 11.3266 13.3175 12.7873 11.9525C12.8926 11.8533 12.9515 11.7191 12.9512 11.5793C12.9509 11.4396 12.8913 11.3056 12.7856 11.2068C12.6798 11.108 12.5365 11.0523 12.3869 11.052C12.2374 11.0517 12.0938 11.1068 11.9876 11.2051C9.5071 13.523 5.47131 13.523 2.99093 11.2051C0.510553 8.88731 0.510553 5.11586 2.99093 2.79803C4.19248 1.67529 5.78997 1.05692 7.48925 1.05692C9.18853 1.05692 10.7861 1.67529 11.9876 2.7981C12.9149 3.66463 13.5194 4.75348 13.7475 5.93554L11.74 4.6561C11.6787 4.61675 11.6096 4.58909 11.5368 4.57473C11.464 4.56036 11.3889 4.55956 11.3158 4.57237C11.2426 4.58518 11.1729 4.61135 11.1106 4.64939C11.0483 4.68742 10.9947 4.73657 10.9528 4.79401C10.9108 4.85145 10.8814 4.91606 10.8663 4.98414C10.8511 5.05221 10.8505 5.12241 10.8644 5.19071C10.8784 5.25902 10.9066 5.32408 10.9475 5.38217C10.9884 5.44027 11.0411 5.49025 11.1027 5.52926L14.0973 7.43785L14.0977 7.4382C14.1438 7.46751 14.1943 7.49026 14.2475 7.5057C14.2491 7.5062 14.2506 7.50697 14.2522 7.50739C14.261 7.50993 14.27 7.51092 14.2789 7.51303C14.3236 7.52392 14.3696 7.52965 14.4158 7.53008C14.508 7.5302 14.5988 7.50924 14.6804 7.46903C14.7619 7.42882 14.8316 7.37058 14.8836 7.29939L16.9016 4.53434C16.9435 4.47701 16.9729 4.41253 16.9881 4.34459C17.0032 4.27665 17.004 4.20658 16.9902 4.13838C16.9764 4.07018 16.9483 4.00519 16.9077 3.94711C16.867 3.88904 16.8145 3.83902 16.7531 3.79992Z" fill="#838383"/>
</svg>
