<svg width="28" height="28" viewBox="0 0 28 28" fill="none" xmlns="http://www.w3.org/2000/svg">
<path d="M21.2877 18.5118C20.3729 17.6092 19.2309 17.6092 18.3219 18.5118C17.6285 19.1989 16.9351 19.886 16.2534 20.5848C16.067 20.777 15.9096 20.8177 15.6824 20.6896C15.2337 20.445 14.756 20.2471 14.3248 19.9792C12.3146 18.7156 10.6307 17.0909 9.13904 15.2625C8.39906 14.354 7.74064 13.3816 7.28033 12.2868C7.18711 12.0655 7.20459 11.92 7.38521 11.7395C8.07859 11.0698 8.75448 10.3827 9.4362 9.69553C10.386 8.74053 10.386 7.62249 9.43038 6.66167C8.8885 6.1143 8.34661 5.57857 7.80473 5.03119C7.24537 4.47217 6.69184 3.90733 6.12665 3.35413C5.21186 2.46319 4.06983 2.46319 3.16087 3.35995C2.46167 4.04708 1.7916 4.75168 1.08075 5.42717C0.422333 6.05024 0.0902123 6.81308 0.0202921 7.70402C-0.0904147 9.15398 0.265013 10.5224 0.766107 11.8559C1.7916 14.6161 3.35315 17.0676 5.24682 19.3154C7.80473 22.355 10.8579 24.76 14.4297 26.4953C16.0378 27.2756 17.7043 27.8754 19.5164 27.9744C20.7633 28.0442 21.847 27.7298 22.7152 26.7573C23.3095 26.0935 23.9796 25.4879 24.6089 24.8532C25.5411 23.9098 25.547 22.7685 24.6205 21.8368C23.5135 20.7246 22.4006 19.6182 21.2877 18.5118ZM20.1748 13.8707L22.3248 13.5039C21.9869 11.5298 21.0546 9.74212 19.6387 8.32127C18.1413 6.82472 16.2476 5.88137 14.1616 5.59022L13.8587 7.7506C15.4726 7.9777 16.941 8.7056 18.1005 9.8644C19.1959 10.9592 19.9126 12.3451 20.1748 13.8707ZM23.5368 4.5304C21.0546 2.04975 17.914 0.483321 14.4471 0L14.1442 2.16039C17.1391 2.57965 19.8543 3.93644 21.9985 6.07354C24.032 8.10581 25.3663 10.6738 25.85 13.498L28 13.1312C27.4348 9.85858 25.8907 6.88878 23.5368 4.5304Z" fill="#2B2B2B"/>
</svg>
